<svg width="203" height="229" viewBox="0 0 203 229" fill="none" xmlns="http://www.w3.org/2000/svg">
<path fill-rule="evenodd" clip-rule="evenodd" d="M131.993 65.6056C133.651 68.6604 136.381 70.9145 139.532 71.9444L124.976 86.5075L120.189 81.7176C115.057 76.583 106.737 76.5839 101.606 81.7176L68.1907 115.149L58.2409 105.195C53.1093 100.06 44.7893 100.061 39.6577 105.195L3.71578 141.155C2.08812 142.784 1.01638 144.758 0.500557 146.842C0.0486704 148.268 -0.0947783 149.814 0.141706 151.409C6.58956 194.874 43.6101 228.2 88.3145 228.2C137.56 228.2 177.482 187.759 177.482 137.873C177.482 132.86 177.079 127.463 176.304 121.809C175.413 115.308 169.149 111.125 162.69 112.265C155.886 113.466 151.53 120.081 152.363 126.943C152.836 130.84 153.078 134.508 153.078 137.873C153.078 174.562 123.798 203.784 88.3145 203.784C58.1917 203.784 32.5386 182.724 25.476 153.913L48.9493 130.428L58.8991 140.383C64.0307 145.517 72.3507 145.516 77.4823 140.383L110.897 106.951L115.685 111.741C120.816 116.874 129.136 116.874 134.268 111.741L183.509 62.4738L186.101 65.0673C189.217 68.1853 194.544 66.6749 195.563 62.3849L202.556 32.9258C203.525 28.8439 199.855 25.172 195.775 26.1413L166.331 33.1386C162.043 34.1574 160.534 39.4865 163.65 42.6046L166.253 45.2091L154.801 56.6679C154.637 56.2506 154.447 55.837 154.23 55.4271C137.922 24.7456 114.429 0.00390625 88.3145 0.00390625C55.5143 0.00390625 23.2761 43.6739 8.91109 88.9946C6.04304 98.0433 14.0473 106.313 23.3912 104.665C28.1662 103.823 32.1101 100.481 33.6358 95.8763L34.2697 93.9614C37.8084 83.2611 42.3562 69.5105 46.4481 62.3509C53.5876 49.8604 61.5118 39.8194 69.3665 33.1725C77.2204 26.5256 83.5626 24.42 88.3145 24.42C93.0667 24.42 99.4086 26.5256 107.263 33.1725C115.117 39.8194 123.042 49.8604 130.181 62.3509C130.796 63.4276 131.4 64.5125 131.993 65.6056Z" fill="#34B56F"/>
</svg>
