<svg width="203" height="229" viewBox="0 0 203 229" fill="none" xmlns="http://www.w3.org/2000/svg">
<path fill-rule="evenodd" clip-rule="evenodd" d="M131.971 66.3982C133.629 69.4531 136.359 71.7074 139.51 72.7373L124.954 87.3012L120.166 82.5111C115.034 77.3761 106.714 77.377 101.582 82.5111L68.1653 115.945L58.215 105.989C53.0831 100.854 44.7626 100.855 39.6307 105.989L3.68692 141.951C2.05917 143.58 0.987376 145.555 0.471529 147.638C0.0196187 149.065 -0.123838 150.611 0.112659 152.206C6.56086 195.674 43.5834 229.002 88.2902 229.002C137.539 229.002 177.462 188.558 177.462 138.669C177.462 133.656 177.059 128.259 176.284 122.605C175.393 116.103 169.129 111.92 162.67 113.06C155.865 114.261 151.509 120.876 152.342 127.739C152.815 131.636 153.057 135.304 153.057 138.669C153.057 175.36 123.775 204.584 88.2902 204.584C58.1657 204.584 32.5113 183.523 25.4483 154.71L48.9229 131.224L58.8731 141.179C64.005 146.314 72.3255 146.313 77.4574 141.179L110.874 107.746L115.662 112.536C120.794 117.67 129.114 117.67 134.246 112.536L183.49 63.2662L186.082 65.8598C189.198 68.978 194.525 67.4676 195.544 63.1773L202.538 33.7166C203.507 29.6345 199.837 25.9624 195.757 26.9318L166.31 33.9294C162.022 34.9483 160.513 40.2777 163.63 43.3959L166.233 46.0005L154.78 57.4599C154.616 57.0427 154.427 56.629 154.209 56.2191C137.9 25.5359 114.406 0.792969 88.2902 0.792969C55.4882 0.792969 23.2483 44.4653 8.88251 89.7884C6.01431 98.8376 14.019 107.108 23.3634 105.46C28.1387 104.617 32.0828 101.275 33.6086 96.6705L34.2424 94.7555C37.7814 84.0546 42.3294 70.3033 46.4216 63.1433C53.5614 50.6522 61.4861 40.6106 69.3411 33.9633C77.1955 27.3161 83.538 25.2104 88.2902 25.2104C93.0426 25.2104 99.3849 27.3161 107.239 33.9633C115.094 40.6106 123.019 50.6522 130.159 63.1433C130.774 64.22 131.378 65.305 131.971 66.3982Z" fill="#F7F7F7"/>
</svg>
