<svg width="203" height="230" viewBox="0 0 203 230" fill="none" xmlns="http://www.w3.org/2000/svg">
<path fill-rule="evenodd" clip-rule="evenodd" d="M131.971 66.4998C133.629 69.5547 136.359 71.809 139.51 72.8389L124.954 87.4027L120.166 82.6126C115.034 77.4777 106.714 77.4786 101.582 82.6126L68.1653 116.046L58.215 106.091C53.0831 100.956 44.7626 100.957 39.6307 106.091L3.68692 142.053C2.05917 143.682 0.987376 145.656 0.471529 147.74C0.0196187 149.166 -0.123838 150.712 0.112659 152.307C6.56086 195.775 43.5834 229.103 88.2902 229.103C137.539 229.103 177.462 188.66 177.462 138.771C177.462 133.758 177.059 128.36 176.284 122.706C175.393 116.205 169.129 112.022 162.67 113.162C155.865 114.362 151.509 120.978 152.342 127.84C152.815 131.737 153.057 135.406 153.057 138.771C153.057 175.462 123.775 204.686 88.2902 204.686C58.1657 204.686 32.5113 183.624 25.4483 154.812L48.9229 131.325L58.8731 141.281C64.005 146.416 72.3255 146.415 77.4574 141.281L110.874 107.847L115.662 112.637C120.794 117.771 129.114 117.771 134.246 112.637L183.49 63.3678L186.082 65.9614C189.198 69.0796 194.525 67.5691 195.544 63.2788L202.538 33.8182C203.507 29.7361 199.837 26.064 195.757 27.0334L166.31 34.031C162.022 35.0499 160.513 40.3793 163.63 43.4975L166.233 46.1021L154.78 57.5615C154.616 57.1442 154.427 56.7306 154.209 56.3206C137.9 25.6375 114.406 0.894531 88.2902 0.894531C55.4882 0.894531 23.2483 44.5668 8.88251 89.89C6.01431 98.9392 14.019 107.21 23.3634 105.562C28.1387 104.719 32.0828 101.377 33.6086 96.772L34.2424 94.8571C37.7814 84.1561 42.3294 70.4048 46.4216 63.2449C53.5614 50.7537 61.4861 40.7122 69.3411 34.0649C77.1955 27.4176 83.538 25.3119 88.2902 25.3119C93.0426 25.3119 99.3849 27.4176 107.239 34.0649C115.094 40.7122 123.019 50.7537 130.159 63.2449C130.774 64.3216 131.378 65.4065 131.971 66.4998Z" fill="#151515"/>
</svg>
