<svg width="1081" height="229" viewBox="0 0 1081 229" fill="none" xmlns="http://www.w3.org/2000/svg">
<path d="M990.52 182.045C989.269 182.045 988.205 181.607 987.329 180.73C986.453 179.854 986.015 178.789 986.015 177.537V53.1964C986.015 51.9443 986.453 50.8799 987.329 50.0034C988.205 49.1269 989.269 48.6886 990.52 48.6886H1007.23C1008.6 48.6886 1009.67 49.1269 1010.42 50.0034C1011.3 50.8799 1011.73 51.9443 1011.73 53.1964V96.0208C1015.11 92.0138 1019.24 88.7582 1024.12 86.2538C1029 83.7495 1035.01 82.4973 1042.15 82.4973C1049.78 82.4973 1056.41 84.2503 1062.05 87.7564C1067.8 91.1373 1072.25 95.9582 1075.37 102.219C1078.5 108.48 1080.07 115.993 1080.07 124.758V177.537C1080.07 178.789 1079.63 179.854 1078.75 180.73C1077.88 181.607 1076.81 182.045 1075.56 182.045H1058.67C1057.41 182.045 1056.35 181.607 1055.47 180.73C1054.6 179.854 1054.16 178.789 1054.16 177.537V125.885C1054.16 118.623 1052.35 112.925 1048.72 108.793C1045.21 104.661 1040.08 102.595 1033.32 102.595C1026.81 102.595 1021.56 104.661 1017.55 108.793C1013.67 112.925 1011.73 118.623 1011.73 125.885V177.537C1011.73 178.789 1011.3 179.854 1010.42 180.73C1009.67 181.607 1008.6 182.045 1007.23 182.045H990.52Z" fill="#F7F7F7"/>
<path d="M926.45 183.923C917.439 183.923 909.491 182.233 902.608 178.852C895.85 175.471 890.53 170.588 886.651 164.202C882.896 157.69 880.831 149.864 880.456 140.723C880.33 138.845 880.268 136.403 880.268 133.398C880.268 130.268 880.33 127.701 880.456 125.697C880.831 116.556 882.896 108.793 886.651 102.407C890.53 95.8956 895.85 90.9495 902.608 87.5686C909.491 84.1877 917.439 82.4973 926.45 82.4973C934.459 82.4973 941.28 83.6243 946.912 85.8782C952.544 88.1321 957.175 90.9495 960.804 94.3304C964.434 97.7112 967.125 101.28 968.877 105.036C970.754 108.668 971.755 111.986 971.881 114.991C972.006 116.369 971.568 117.496 970.566 118.372C969.69 119.123 968.626 119.499 967.375 119.499H950.855C949.603 119.499 948.602 119.186 947.851 118.56C947.225 117.934 946.599 116.995 945.974 115.743C944.096 110.734 941.593 107.228 938.464 105.224C935.461 103.096 931.581 102.031 926.825 102.031C920.567 102.031 915.561 104.035 911.807 108.042C908.177 111.923 906.237 118.122 905.987 126.636C905.737 131.395 905.737 135.777 905.987 139.784C906.237 148.424 908.177 154.685 911.807 158.567C915.561 162.449 920.567 164.389 926.825 164.389C931.706 164.389 935.648 163.388 938.652 161.384C941.656 159.256 944.096 155.687 945.974 150.678C946.599 149.426 947.225 148.487 947.851 147.861C948.602 147.235 949.603 146.922 950.855 146.922H967.375C968.626 146.922 969.69 147.36 970.566 148.236C971.568 148.988 972.006 150.052 971.881 151.429C971.755 153.683 971.13 156.25 970.003 159.13C969.002 161.885 967.312 164.765 964.934 167.77C962.682 170.65 959.803 173.343 956.299 175.847C952.795 178.226 948.539 180.167 943.533 181.669C938.652 183.172 932.958 183.923 926.45 183.923Z" fill="#F7F7F7"/>
<path d="M853.477 182.045C845.967 182.045 839.647 180.73 834.516 178.101C829.384 175.471 825.567 171.589 823.064 166.456C820.561 161.196 819.31 154.685 819.31 146.922V104.285H804.479C803.227 104.285 802.164 103.847 801.287 102.97C800.411 102.094 799.973 101.029 799.973 99.7773V88.8834C799.973 87.6312 800.411 86.5669 801.287 85.6903C802.164 84.8138 803.227 84.3756 804.479 84.3756H819.31V53.1964C819.31 51.9443 819.685 50.8799 820.436 50.0034C821.312 49.1269 822.438 48.6886 823.815 48.6886H839.021C840.273 48.6886 841.337 49.1269 842.213 50.0034C843.089 50.8799 843.527 51.9443 843.527 53.1964V84.3756H866.993C868.245 84.3756 869.309 84.8138 870.185 85.6903C871.061 86.5669 871.499 87.6312 871.499 88.8834V99.7773C871.499 101.029 871.061 102.094 870.185 102.97C869.309 103.847 868.245 104.285 866.993 104.285H843.527V145.043C843.527 150.177 844.403 154.184 846.155 157.064C848.032 159.944 851.224 161.384 855.729 161.384H868.683C869.934 161.384 870.998 161.823 871.874 162.699C872.75 163.576 873.188 164.64 873.188 165.892V177.537C873.188 178.789 872.75 179.854 871.874 180.73C870.998 181.607 869.934 182.045 868.683 182.045H853.477Z" fill="#F7F7F7"/>
<path d="M737.007 183.923C730.499 183.923 724.617 182.671 719.361 180.167C714.104 177.537 709.912 174.094 706.783 169.836C703.779 165.454 702.277 160.57 702.277 155.186C702.277 146.421 705.781 139.471 712.79 134.337C719.924 129.078 729.31 125.572 740.95 123.819L766.669 120.063V116.118C766.669 110.859 765.355 106.789 762.726 103.909C760.098 101.029 755.593 99.5895 749.21 99.5895C744.704 99.5895 741.012 100.529 738.134 102.407C735.38 104.16 733.315 106.539 731.939 109.544C730.937 111.172 729.498 111.986 727.621 111.986H712.79C711.413 111.986 710.35 111.61 709.599 110.859C708.973 110.108 708.66 109.106 708.66 107.854C708.785 105.85 709.599 103.409 711.101 100.529C712.602 97.6486 714.98 94.8938 718.234 92.2643C721.488 89.5095 725.681 87.193 730.812 85.3147C735.944 83.4364 742.139 82.4973 749.398 82.4973C757.282 82.4973 763.915 83.499 769.297 85.5025C774.804 87.3808 779.184 89.9477 782.438 93.2034C785.692 96.459 788.07 100.278 789.572 104.661C791.074 109.043 791.825 113.676 791.825 118.56V177.537C791.825 178.789 791.387 179.854 790.511 180.73C789.635 181.607 788.571 182.045 787.319 182.045H772.113C770.736 182.045 769.61 181.607 768.734 180.73C767.983 179.854 767.607 178.789 767.607 177.537V170.212C765.98 172.591 763.79 174.845 761.037 176.974C758.284 178.977 754.904 180.668 750.899 182.045C747.02 183.297 742.389 183.923 737.007 183.923ZM743.39 166.08C747.771 166.08 751.713 165.141 755.217 163.263C758.847 161.384 761.663 158.504 763.665 154.623C765.793 150.616 766.857 145.607 766.857 139.596V135.652L748.083 138.657C740.699 139.784 735.193 141.6 731.563 144.104C727.934 146.609 726.119 149.676 726.119 153.308C726.119 156.063 726.933 158.442 728.56 160.445C730.312 162.323 732.502 163.763 735.13 164.765C737.758 165.642 740.512 166.08 743.39 166.08Z" fill="#F7F7F7"/>
<path d="M584.285 182.045C583.034 182.045 581.97 181.669 581.094 180.918C580.218 180.042 579.78 178.915 579.78 177.537V55.2625C579.78 53.8851 580.218 52.7582 581.094 51.8817C581.97 51.0051 583.034 50.5669 584.285 50.5669H601.369C602.746 50.5669 603.81 51.0051 604.56 51.8817C605.437 52.7582 605.875 53.8851 605.875 55.2625V103.722H661.255V55.2625C661.255 53.8851 661.693 52.7582 662.569 51.8817C663.445 51.0051 664.509 50.5669 665.761 50.5669H682.656C684.033 50.5669 685.159 51.0051 686.036 51.8817C686.912 52.7582 687.35 53.8851 687.35 55.2625V177.537C687.35 178.789 686.912 179.854 686.036 180.73C685.159 181.607 684.033 182.045 682.656 182.045H665.761C664.509 182.045 663.445 181.607 662.569 180.73C661.693 179.854 661.255 178.789 661.255 177.537V127.2H605.875V177.537C605.875 178.789 605.437 179.854 604.56 180.73C603.81 181.607 602.746 182.045 601.369 182.045H584.285Z" fill="#F7F7F7"/>
<path d="M538.17 182.045C536.918 182.045 535.854 181.607 534.978 180.73C534.102 179.854 533.664 178.789 533.664 177.537V53.1964C533.664 51.9443 534.102 50.8799 534.978 50.0034C535.854 49.1269 536.918 48.6886 538.17 48.6886H553.751C555.003 48.6886 556.067 49.1269 556.943 50.0034C557.819 50.8799 558.257 51.9443 558.257 53.1964V177.537C558.257 178.789 557.819 179.854 556.943 180.73C556.067 181.607 555.003 182.045 553.751 182.045H538.17Z" fill="#F7F7F7"/>
<path d="M494.119 182.045C492.868 182.045 491.804 181.607 490.928 180.73C490.052 179.854 489.614 178.789 489.614 177.537V53.1964C489.614 51.9443 490.052 50.8799 490.928 50.0034C491.804 49.1269 492.868 48.6886 494.119 48.6886H509.701C510.952 48.6886 512.016 49.1269 512.892 50.0034C513.768 50.8799 514.206 51.9443 514.206 53.1964V177.537C514.206 178.789 513.768 179.854 512.892 180.73C512.016 181.607 510.952 182.045 509.701 182.045H494.119Z" fill="#F7F7F7"/>
<path d="M450.064 182.045C448.812 182.045 447.749 181.607 446.873 180.73C445.996 179.854 445.558 178.789 445.558 177.537V88.8832C445.558 87.631 445.996 86.5667 446.873 85.6902C447.749 84.8136 448.812 84.3754 450.064 84.3754H465.646C467.022 84.3754 468.086 84.8136 468.837 85.6902C469.713 86.5667 470.151 87.631 470.151 88.8832V177.537C470.151 178.789 469.713 179.854 468.837 180.73C468.086 181.607 467.022 182.045 465.646 182.045H450.064ZM449.313 68.2223C447.936 68.2223 446.81 67.8467 445.934 67.0954C445.183 66.2189 444.807 65.0919 444.807 63.7145V50.191C444.807 48.9389 445.183 47.8745 445.934 46.998C446.81 46.1215 447.936 45.6832 449.313 45.6832H466.397C467.773 45.6832 468.9 46.1215 469.776 46.998C470.652 47.8745 471.09 48.9389 471.09 50.191V63.7145C471.09 65.0919 470.652 66.2189 469.776 67.0954C468.9 67.8467 467.773 68.2223 466.397 68.2223H449.313Z" fill="#F7F7F7"/>
<path d="M352.668 182.045C351.417 182.045 350.353 181.607 349.477 180.73C348.601 179.854 348.163 178.789 348.163 177.537V53.1964C348.163 51.9443 348.601 50.8799 349.477 50.0034C350.353 49.1269 351.417 48.6886 352.668 48.6886H367.875C369.251 48.6886 370.315 49.1269 371.066 50.0034C371.942 50.8799 372.38 51.9443 372.38 53.1964V117.433L403.919 87.5686C405.045 86.5669 406.046 85.8156 406.923 85.3147C407.799 84.6886 409.113 84.3756 410.865 84.3756H428.324C429.575 84.3756 430.577 84.7512 431.328 85.5025C432.078 86.2538 432.454 87.2556 432.454 88.5077C432.454 89.0086 432.329 89.5721 432.078 90.1982C431.828 90.8243 431.328 91.3877 430.577 91.8886L391.904 128.139L435.27 174.72C436.521 175.972 437.147 177.036 437.147 177.913C437.147 179.165 436.709 180.167 435.833 180.918C435.082 181.669 434.144 182.045 433.017 182.045H415.183C413.305 182.045 411.929 181.795 411.053 181.294C410.302 180.668 409.363 179.854 408.237 178.852L372.38 141.099V177.537C372.38 178.789 371.942 179.854 371.066 180.73C370.315 181.607 369.251 182.045 367.875 182.045H352.668Z" fill="#F7F7F7"/>
<path d="M281.03 183.923C269.391 183.923 259.629 182.233 251.744 178.852C243.984 175.346 238.04 170.838 233.91 165.329C229.905 159.694 227.777 153.809 227.527 147.673C227.527 146.546 227.902 145.607 228.653 144.856C229.404 144.104 230.343 143.729 231.469 143.729H248.177C249.804 143.729 250.993 144.104 251.744 144.856C252.62 145.482 253.371 146.296 253.997 147.297C254.748 149.676 256.187 152.056 258.315 154.435C260.442 156.689 263.321 158.567 266.95 160.069C270.705 161.572 275.398 162.323 281.03 162.323C290.041 162.323 296.737 160.821 301.117 157.816C305.623 154.81 307.875 150.741 307.875 145.607C307.875 141.976 306.687 139.096 304.309 136.967C301.931 134.713 298.239 132.709 293.232 130.956C288.351 129.078 281.843 127.137 273.709 125.134C264.322 122.88 256.437 120.188 250.054 117.057C243.797 113.802 239.041 109.732 235.787 104.849C232.658 99.9651 231.094 93.7669 231.094 86.2538C231.094 78.9912 233.033 72.5425 236.913 66.9077C240.918 61.273 246.55 56.8277 253.809 53.5721C261.193 50.3164 269.954 48.6886 280.091 48.6886C288.226 48.6886 295.423 49.8156 301.68 52.0695C307.938 54.1982 313.132 57.0782 317.262 60.7095C321.392 64.2156 324.521 68.0347 326.649 72.1669C328.901 76.1738 330.09 80.1182 330.215 83.9999C330.215 85.0017 329.84 85.9408 329.089 86.8173C328.463 87.5686 327.525 87.9443 326.273 87.9443H308.814C307.813 87.9443 306.812 87.6938 305.81 87.193C304.809 86.6921 303.996 85.753 303.37 84.3756C302.619 80.4938 300.179 77.1756 296.048 74.4208C291.918 71.666 286.599 70.2886 280.091 70.2886C273.333 70.2886 267.889 71.5408 263.759 74.0451C259.629 76.5495 257.564 80.4312 257.564 85.6903C257.564 89.1964 258.565 92.139 260.567 94.5182C262.695 96.7721 266.012 98.7756 270.517 100.529C275.148 102.282 281.218 104.16 288.727 106.163C299.365 108.543 308.063 111.297 314.822 114.428C321.58 117.558 326.523 121.565 329.652 126.449C332.781 131.207 334.346 137.28 334.346 144.668C334.346 152.932 332.093 160.007 327.587 165.892C323.207 171.652 317.012 176.097 309.002 179.228C300.992 182.358 291.668 183.923 281.03 183.923Z" fill="#F7F7F7"/>
<path fill-rule="evenodd" clip-rule="evenodd" d="M132.039 66.3982C133.697 69.4531 136.427 71.7074 139.578 72.7373L125.021 87.3012L120.234 82.5111C115.102 77.3761 106.781 77.377 101.65 82.5111L68.2329 115.945L58.2826 105.989C53.1507 100.854 44.8303 100.855 39.6984 105.989L3.75455 141.951C2.1268 143.58 1.055 145.555 0.539156 147.638C0.0872456 149.065 -0.0562107 150.611 0.180286 152.206C6.62849 195.674 43.651 229.002 88.3578 229.002C137.606 229.002 177.53 188.559 177.53 138.669C177.53 133.656 177.127 128.259 176.352 122.605C175.461 116.103 169.197 111.92 162.737 113.06C155.933 114.261 151.577 120.876 152.41 127.739C152.883 131.636 153.125 135.304 153.125 138.669C153.125 175.36 123.843 204.584 88.3578 204.584C58.2333 204.584 32.579 183.523 25.5159 154.71L48.9905 131.224L58.9408 141.179C64.0727 146.314 72.3931 146.313 77.525 141.179L110.942 107.746L115.729 112.536C120.861 117.67 129.182 117.67 134.314 112.536L183.558 63.2662L186.15 65.8598C189.266 68.978 194.593 67.4676 195.612 63.1773L202.605 33.7166C203.575 29.6345 199.904 25.9624 195.824 26.9318L166.378 33.9294C162.09 34.9483 160.581 40.2777 163.697 43.3959L166.301 46.0005L154.848 57.4599C154.684 57.0427 154.494 56.629 154.276 56.2191C137.968 25.5359 114.474 0.792969 88.3578 0.792969C55.5558 0.792969 23.3159 44.4653 8.95014 89.7884C6.08193 98.8376 14.0866 107.108 23.431 105.46C28.2063 104.617 32.1504 101.275 33.6762 96.6705L34.3101 94.7555C37.849 84.0546 42.397 70.3033 46.4892 63.1433C53.629 50.6522 61.5537 40.6106 69.4087 33.9633C77.2631 27.3161 83.6056 25.2104 88.3578 25.2104C93.1102 25.2104 99.4525 27.3161 107.307 33.9633C115.162 40.6106 123.087 50.6522 130.226 63.1433C130.842 64.22 131.446 65.305 132.039 66.3982Z" fill="#F7F7F7"/>
</svg>
