<svg width="1081" height="230" viewBox="0 0 1081 230" fill="none" xmlns="http://www.w3.org/2000/svg">
<path d="M990.52 182.147C989.269 182.147 988.205 181.708 987.329 180.832C986.453 179.955 986.015 178.891 986.015 177.639V53.298C986.015 52.0458 986.453 50.9815 987.329 50.105C988.205 49.2284 989.269 48.7902 990.52 48.7902H1007.23C1008.6 48.7902 1009.67 49.2284 1010.42 50.105C1011.3 50.9815 1011.73 52.0458 1011.73 53.298V96.1223C1015.11 92.1154 1019.24 88.8597 1024.12 86.3554C1029 83.851 1035.01 82.5989 1042.15 82.5989C1049.78 82.5989 1056.41 84.3519 1062.05 87.858C1067.8 91.2389 1072.25 96.0597 1075.37 102.321C1078.5 108.581 1080.07 116.095 1080.07 124.86V177.639C1080.07 178.891 1079.63 179.955 1078.75 180.832C1077.88 181.708 1076.81 182.147 1075.56 182.147H1058.67C1057.41 182.147 1056.35 181.708 1055.47 180.832C1054.6 179.955 1054.16 178.891 1054.16 177.639V125.987C1054.16 118.724 1052.35 113.027 1048.72 108.895C1045.21 104.762 1040.08 102.696 1033.32 102.696C1026.81 102.696 1021.56 104.762 1017.55 108.895C1013.67 113.027 1011.73 118.724 1011.73 125.987V177.639C1011.73 178.891 1011.3 179.955 1010.42 180.832C1009.67 181.708 1008.6 182.147 1007.23 182.147H990.52Z" fill="#151515"/>
<path d="M926.45 184.025C917.439 184.025 909.491 182.335 902.608 178.954C895.85 175.573 890.53 170.689 886.651 164.303C882.896 157.792 880.831 149.966 880.456 140.825C880.33 138.947 880.268 136.505 880.268 133.5C880.268 130.369 880.33 127.802 880.456 125.799C880.831 116.658 882.896 108.895 886.651 102.508C890.53 95.9971 895.85 91.051 902.608 87.6702C909.491 84.2893 917.439 82.5989 926.45 82.5989C934.459 82.5989 941.28 83.7258 946.912 85.9797C952.544 88.2337 957.175 91.051 960.804 94.4319C964.434 97.8128 967.125 101.381 968.877 105.138C970.754 108.769 971.755 112.088 971.881 115.093C972.006 116.47 971.568 117.597 970.566 118.474C969.69 119.225 968.626 119.601 967.375 119.601H950.855C949.603 119.601 948.602 119.288 947.851 118.661C947.225 118.035 946.599 117.096 945.974 115.844C944.096 110.835 941.593 107.329 938.464 105.326C935.461 103.197 931.581 102.133 926.825 102.133C920.567 102.133 915.561 104.136 911.807 108.143C908.177 112.025 906.237 118.223 905.987 126.738C905.737 131.496 905.737 135.879 905.987 139.886C906.237 148.526 908.177 154.787 911.807 158.668C915.561 162.55 920.567 164.491 926.825 164.491C931.706 164.491 935.648 163.489 938.652 161.486C941.656 159.357 944.096 155.788 945.974 150.78C946.599 149.528 947.225 148.588 947.851 147.962C948.602 147.336 949.603 147.023 950.855 147.023H967.375C968.626 147.023 969.69 147.461 970.566 148.338C971.568 149.089 972.006 150.154 971.881 151.531C971.755 153.785 971.13 156.352 970.003 159.232C969.002 161.987 967.312 164.867 964.934 167.872C962.682 170.752 959.803 173.444 956.299 175.948C952.795 178.328 948.539 180.268 943.533 181.771C938.652 183.274 932.958 184.025 926.45 184.025Z" fill="#151515"/>
<path d="M853.477 182.147C845.967 182.147 839.647 180.832 834.516 178.202C829.384 175.573 825.567 171.691 823.064 166.557C820.561 161.298 819.31 154.787 819.31 147.023V104.387H804.479C803.227 104.387 802.164 103.948 801.287 103.072C800.411 102.195 799.973 101.131 799.973 99.8789V88.985C799.973 87.7328 800.411 86.6684 801.287 85.7919C802.164 84.9154 803.227 84.4771 804.479 84.4771H819.31V53.298C819.31 52.0458 819.685 50.9815 820.436 50.105C821.312 49.2284 822.438 48.7902 823.815 48.7902H839.021C840.273 48.7902 841.337 49.2284 842.213 50.105C843.089 50.9815 843.527 52.0458 843.527 53.298V84.4771H866.993C868.245 84.4771 869.309 84.9154 870.185 85.7919C871.061 86.6684 871.499 87.7328 871.499 88.985V99.8789C871.499 101.131 871.061 102.195 870.185 103.072C869.309 103.948 868.245 104.387 866.993 104.387H843.527V145.145C843.527 150.279 844.403 154.286 846.155 157.166C848.032 160.046 851.224 161.486 855.729 161.486H868.683C869.934 161.486 870.998 161.924 871.874 162.801C872.75 163.677 873.188 164.741 873.188 165.994V177.639C873.188 178.891 872.75 179.955 871.874 180.832C870.998 181.708 869.934 182.147 868.683 182.147H853.477Z" fill="#151515"/>
<path d="M737.007 184.025C730.499 184.025 724.617 182.773 719.361 180.268C714.104 177.639 709.912 174.195 706.783 169.938C703.779 165.555 702.277 160.672 702.277 155.288C702.277 146.522 705.781 139.573 712.79 134.439C719.924 129.18 729.31 125.674 740.95 123.921L766.669 120.164V116.22C766.669 110.961 765.355 106.891 762.726 104.011C760.098 101.131 755.593 99.691 749.21 99.691C744.704 99.691 741.012 100.63 738.134 102.508C735.38 104.261 733.315 106.641 731.939 109.646C730.937 111.274 729.498 112.088 727.621 112.088H712.79C711.413 112.088 710.35 111.712 709.599 110.961C708.973 110.209 708.66 109.208 708.66 107.955C708.785 105.952 709.599 103.51 711.101 100.63C712.602 97.7502 714.98 94.9954 718.234 92.3658C721.488 89.611 725.681 87.2945 730.812 85.4163C735.944 83.538 742.139 82.5989 749.398 82.5989C757.282 82.5989 763.915 83.6006 769.297 85.6041C774.804 87.4823 779.184 90.0493 782.438 93.305C785.692 96.5606 788.07 100.38 789.572 104.762C791.074 109.145 791.825 113.778 791.825 118.661V177.639C791.825 178.891 791.387 179.955 790.511 180.832C789.635 181.708 788.571 182.147 787.319 182.147H772.113C770.736 182.147 769.61 181.708 768.734 180.832C767.983 179.955 767.607 178.891 767.607 177.639V170.314C765.98 172.693 763.79 174.947 761.037 177.075C758.284 179.079 754.904 180.769 750.899 182.147C747.02 183.399 742.389 184.025 737.007 184.025ZM743.39 166.181C747.771 166.181 751.713 165.242 755.217 163.364C758.847 161.486 761.663 158.606 763.665 154.724C765.793 150.717 766.857 145.708 766.857 139.698V135.754L748.083 138.759C740.699 139.886 735.193 141.701 731.563 144.206C727.934 146.71 726.119 149.778 726.119 153.409C726.119 156.164 726.933 158.543 728.56 160.547C730.312 162.425 732.502 163.865 735.13 164.867C737.758 165.743 740.512 166.181 743.39 166.181Z" fill="#151515"/>
<path d="M584.285 182.147C583.034 182.147 581.97 181.771 581.094 181.02C580.218 180.143 579.78 179.016 579.78 177.639V55.3641C579.78 53.9867 580.218 52.8597 581.094 51.9832C581.97 51.1067 583.034 50.6684 584.285 50.6684H601.369C602.746 50.6684 603.81 51.1067 604.56 51.9832C605.437 52.8597 605.875 53.9867 605.875 55.3641V103.823H661.255V55.3641C661.255 53.9867 661.693 52.8597 662.569 51.9832C663.445 51.1067 664.509 50.6684 665.761 50.6684H682.656C684.033 50.6684 685.159 51.1067 686.036 51.9832C686.912 52.8597 687.35 53.9867 687.35 55.3641V177.639C687.35 178.891 686.912 179.955 686.036 180.832C685.159 181.708 684.033 182.147 682.656 182.147H665.761C664.509 182.147 663.445 181.708 662.569 180.832C661.693 179.955 661.255 178.891 661.255 177.639V127.301H605.875V177.639C605.875 178.891 605.437 179.955 604.56 180.832C603.81 181.708 602.746 182.147 601.369 182.147H584.285Z" fill="#151515"/>
<path d="M538.17 182.147C536.918 182.147 535.854 181.708 534.978 180.832C534.102 179.955 533.664 178.891 533.664 177.639V53.298C533.664 52.0458 534.102 50.9815 534.978 50.105C535.854 49.2284 536.918 48.7902 538.17 48.7902H553.751C555.003 48.7902 556.067 49.2284 556.943 50.105C557.819 50.9815 558.257 52.0458 558.257 53.298V177.639C558.257 178.891 557.819 179.955 556.943 180.832C556.067 181.708 555.003 182.147 553.751 182.147H538.17Z" fill="#151515"/>
<path d="M494.119 182.147C492.868 182.147 491.804 181.708 490.928 180.832C490.052 179.955 489.614 178.891 489.614 177.639V53.298C489.614 52.0458 490.052 50.9815 490.928 50.105C491.804 49.2284 492.868 48.7902 494.119 48.7902H509.701C510.952 48.7902 512.016 49.2284 512.892 50.105C513.768 50.9815 514.206 52.0458 514.206 53.298V177.639C514.206 178.891 513.768 179.955 512.892 180.832C512.016 181.708 510.952 182.147 509.701 182.147H494.119Z" fill="#151515"/>
<path d="M450.064 182.146C448.812 182.146 447.749 181.708 446.873 180.832C445.996 179.955 445.558 178.891 445.558 177.639V88.9848C445.558 87.7326 445.996 86.6682 446.873 85.7917C447.749 84.9152 448.812 84.4769 450.064 84.4769H465.646C467.022 84.4769 468.086 84.9152 468.837 85.7917C469.713 86.6682 470.151 87.7326 470.151 88.9848V177.639C470.151 178.891 469.713 179.955 468.837 180.832C468.086 181.708 467.022 182.146 465.646 182.146H450.064ZM449.313 68.3239C447.936 68.3239 446.81 67.9482 445.934 67.1969C445.183 66.3204 444.807 65.1935 444.807 63.8161V50.2926C444.807 49.0404 445.183 47.9761 445.934 47.0996C446.81 46.223 447.936 45.7848 449.313 45.7848H466.397C467.773 45.7848 468.9 46.223 469.776 47.0996C470.652 47.9761 471.09 49.0404 471.09 50.2926V63.8161C471.09 65.1935 470.652 66.3204 469.776 67.1969C468.9 67.9482 467.773 68.3239 466.397 68.3239H449.313Z" fill="#151515"/>
<path d="M352.668 182.147C351.417 182.147 350.353 181.708 349.477 180.832C348.601 179.955 348.163 178.891 348.163 177.639V53.298C348.163 52.0458 348.601 50.9815 349.477 50.105C350.353 49.2284 351.417 48.7902 352.668 48.7902H367.875C369.251 48.7902 370.315 49.2284 371.066 50.105C371.942 50.9815 372.38 52.0458 372.38 53.298V117.535L403.919 87.6702C405.045 86.6684 406.046 85.9171 406.923 85.4163C407.799 84.7902 409.113 84.4771 410.865 84.4771H428.324C429.575 84.4771 430.577 84.8528 431.328 85.6041C432.078 86.3554 432.454 87.3571 432.454 88.6093C432.454 89.1102 432.329 89.6737 432.078 90.2997C431.828 90.9258 431.328 91.4893 430.577 91.9902L391.904 128.241L435.27 174.821C436.521 176.074 437.147 177.138 437.147 178.015C437.147 179.267 436.709 180.268 435.833 181.02C435.082 181.771 434.144 182.147 433.017 182.147H415.183C413.305 182.147 411.929 181.896 411.053 181.395C410.302 180.769 409.363 179.955 408.237 178.954L372.38 141.201V177.639C372.38 178.891 371.942 179.955 371.066 180.832C370.315 181.708 369.251 182.147 367.875 182.147H352.668Z" fill="#151515"/>
<path d="M281.03 184.025C269.391 184.025 259.629 182.335 251.744 178.954C243.984 175.448 238.04 170.94 233.91 165.43C229.905 159.795 227.777 153.91 227.527 147.775C227.527 146.648 227.902 145.708 228.653 144.957C229.404 144.206 230.343 143.83 231.469 143.83H248.177C249.804 143.83 250.993 144.206 251.744 144.957C252.62 145.583 253.371 146.397 253.997 147.399C254.748 149.778 256.187 152.157 258.315 154.536C260.442 156.79 263.321 158.668 266.95 160.171C270.705 161.674 275.398 162.425 281.03 162.425C290.041 162.425 296.737 160.922 301.117 157.917C305.623 154.912 307.875 150.842 307.875 145.708C307.875 142.077 306.687 139.197 304.309 137.068C301.931 134.815 298.239 132.811 293.232 131.058C288.351 129.18 281.843 127.239 273.709 125.235C264.322 122.981 256.437 120.289 250.054 117.159C243.797 113.903 239.041 109.834 235.787 104.95C232.658 100.067 231.094 93.8684 231.094 86.3554C231.094 79.0928 233.033 72.6441 236.913 67.0093C240.918 61.3745 246.55 56.9293 253.809 53.6737C261.193 50.418 269.954 48.7902 280.091 48.7902C288.226 48.7902 295.423 49.9171 301.68 52.171C307.938 54.2997 313.132 57.1797 317.262 60.811C321.392 64.3171 324.521 68.1363 326.649 72.2684C328.901 76.2754 330.09 80.2197 330.215 84.1015C330.215 85.1032 329.84 86.0423 329.089 86.9189C328.463 87.6702 327.525 88.0458 326.273 88.0458H308.814C307.813 88.0458 306.812 87.7954 305.81 87.2945C304.809 86.7937 303.996 85.8545 303.37 84.4771C302.619 80.5954 300.179 77.2771 296.048 74.5223C291.918 71.7676 286.599 70.3902 280.091 70.3902C273.333 70.3902 267.889 71.6424 263.759 74.1467C259.629 76.651 257.564 80.5328 257.564 85.7919C257.564 89.298 258.565 92.2406 260.567 94.6197C262.695 96.8737 266.012 98.8771 270.517 100.63C275.148 102.383 281.218 104.261 288.727 106.265C299.365 108.644 308.063 111.399 314.822 114.529C321.58 117.66 326.523 121.667 329.652 126.55C332.781 131.308 334.346 137.381 334.346 144.769C334.346 153.034 332.093 160.108 327.587 165.994C323.207 171.754 317.012 176.199 309.002 179.329C300.992 182.46 291.668 184.025 281.03 184.025Z" fill="#151515"/>
<path fill-rule="evenodd" clip-rule="evenodd" d="M132.039 66.4998C133.697 69.5547 136.427 71.809 139.578 72.8389L125.021 87.4027L120.234 82.6126C115.102 77.4777 106.781 77.4786 101.65 82.6126L68.2329 116.046L58.2826 106.091C53.1507 100.956 44.8303 100.957 39.6984 106.091L3.75455 142.053C2.1268 143.682 1.055 145.656 0.539156 147.74C0.0872456 149.166 -0.0562107 150.712 0.180286 152.307C6.62849 195.775 43.651 229.103 88.3578 229.103C137.606 229.103 177.53 188.66 177.53 138.771C177.53 133.758 177.127 128.36 176.352 122.706C175.461 116.205 169.197 112.022 162.737 113.162C155.933 114.362 151.577 120.978 152.41 127.84C152.883 131.737 153.125 135.406 153.125 138.771C153.125 175.462 123.843 204.686 88.3578 204.686C58.2333 204.686 32.579 183.624 25.5159 154.812L48.9905 131.325L58.9408 141.281C64.0727 146.416 72.3931 146.415 77.525 141.281L110.942 107.847L115.729 112.637C120.861 117.771 129.182 117.771 134.314 112.637L183.558 63.3678L186.15 65.9614C189.266 69.0796 194.593 67.5691 195.612 63.2788L202.605 33.8182C203.575 29.7361 199.904 26.064 195.824 27.0334L166.378 34.031C162.09 35.0499 160.581 40.3793 163.697 43.4975L166.301 46.1021L154.848 57.5615C154.684 57.1442 154.494 56.7306 154.276 56.3206C137.968 25.6375 114.474 0.894531 88.3578 0.894531C55.5558 0.894531 23.3159 44.5668 8.95014 89.89C6.08193 98.9392 14.0866 107.21 23.431 105.562C28.2063 104.719 32.1504 101.377 33.6762 96.772L34.3101 94.8571C37.849 84.1561 42.397 70.4048 46.4892 63.2449C53.629 50.7537 61.5537 40.7122 69.4087 34.0649C77.2631 27.4176 83.6056 25.3119 88.3578 25.3119C93.1102 25.3119 99.4525 27.4176 107.307 34.0649C115.162 40.7122 123.087 50.7537 130.226 63.2449C130.842 64.3216 131.446 65.4065 132.039 66.4998Z" fill="#151515"/>
</svg>
