<svg width="1081" height="229" viewBox="0 0 1081 229" fill="none" xmlns="http://www.w3.org/2000/svg">
<path d="M990.496 181.246C989.245 181.246 988.181 180.808 987.305 179.932C986.429 179.055 985.991 177.991 985.991 176.739V52.4046C985.991 51.1525 986.429 50.0882 987.305 49.2117C988.181 48.3352 989.245 47.897 990.496 47.897H1007.2C1008.58 47.897 1009.64 48.3352 1010.39 49.2117C1011.27 50.0882 1011.71 51.1525 1011.71 52.4046V95.2266C1015.09 91.2199 1019.22 87.9644 1024.1 85.4602C1028.98 82.956 1034.99 81.7039 1042.12 81.7039C1049.75 81.7039 1056.39 83.4568 1062.02 86.9627C1067.77 90.3434 1072.22 95.164 1075.35 101.425C1078.47 107.685 1080.04 115.198 1080.04 123.962V176.739C1080.04 177.991 1079.6 179.055 1078.73 179.932C1077.85 180.808 1076.79 181.246 1075.53 181.246H1058.64C1057.39 181.246 1056.32 180.808 1055.45 179.932C1054.57 179.055 1054.13 177.991 1054.13 176.739V125.089C1054.13 117.827 1052.32 112.13 1048.69 107.998C1045.19 103.866 1040.05 101.8 1033.3 101.8C1026.79 101.8 1021.53 103.866 1017.53 107.998C1013.65 112.13 1011.71 117.827 1011.71 125.089V176.739C1011.71 177.991 1011.27 179.055 1010.39 179.932C1009.64 180.808 1008.58 181.246 1007.2 181.246H990.496Z" fill="#34B56F"/>
<path d="M926.429 183.125C917.419 183.125 909.472 181.434 902.589 178.054C895.831 174.673 890.512 169.79 886.632 163.404C882.878 156.893 880.813 149.067 880.438 139.927C880.313 138.049 880.25 135.607 880.25 132.602C880.25 129.472 880.313 126.905 880.438 124.902C880.813 115.761 882.878 107.998 886.632 101.612C890.512 95.1014 895.831 90.1556 902.589 86.7749C909.472 83.3942 917.419 81.7039 926.429 81.7039C934.439 81.7039 941.259 82.8308 946.891 85.0846C952.522 87.3384 957.153 90.1556 960.782 93.5363C964.411 96.917 967.102 100.485 968.854 104.242C970.731 107.873 971.733 111.191 971.858 114.196C971.983 115.573 971.545 116.7 970.544 117.577C969.668 118.328 968.604 118.704 967.352 118.704H950.833C949.582 118.704 948.58 118.391 947.829 117.765C947.204 117.139 946.578 116.199 945.952 114.947C944.075 109.939 941.572 106.433 938.443 104.43C935.44 102.301 931.56 101.237 926.805 101.237C920.547 101.237 915.541 103.24 911.787 107.247C908.158 111.128 906.218 117.326 905.968 125.841C905.717 130.599 905.717 134.981 905.968 138.988C906.218 147.627 908.158 153.888 911.787 157.769C915.541 161.651 920.547 163.592 926.805 163.592C931.685 163.592 935.628 162.59 938.631 160.587C941.635 158.458 944.075 154.89 945.952 149.881C946.578 148.629 947.204 147.69 947.829 147.064C948.58 146.438 949.582 146.125 950.833 146.125H967.352C968.604 146.125 969.668 146.563 970.544 147.439C971.545 148.191 971.983 149.255 971.858 150.632C971.733 152.886 971.107 155.453 969.981 158.333C968.979 161.087 967.29 163.967 964.912 166.972C962.659 169.852 959.781 172.544 956.277 175.048C952.773 177.427 948.518 179.368 943.512 180.871C938.631 182.373 932.937 183.125 926.429 183.125Z" fill="#34B56F"/>
<path d="M853.46 181.246C845.951 181.246 839.631 179.932 834.5 177.302C829.369 174.673 825.552 170.791 823.049 165.658C820.546 160.399 819.295 153.888 819.295 146.125V103.491H804.465C803.214 103.491 802.15 103.052 801.274 102.176C800.398 101.299 799.96 100.235 799.96 98.983V88.0896C799.96 86.8375 800.398 85.7732 801.274 84.8968C802.15 84.0203 803.214 83.582 804.465 83.582H819.295V52.4046C819.295 51.1525 819.67 50.0882 820.421 49.2117C821.297 48.3352 822.424 47.897 823.8 47.897H839.006C840.257 47.897 841.321 48.3352 842.197 49.2117C843.073 50.0882 843.511 51.1525 843.511 52.4046V83.582H866.976C868.227 83.582 869.291 84.0203 870.167 84.8968C871.043 85.7732 871.481 86.8375 871.481 88.0896V98.983C871.481 100.235 871.043 101.299 870.167 102.176C869.291 103.052 868.227 103.491 866.976 103.491H843.511V144.247C843.511 149.38 844.387 153.387 846.139 156.267C848.016 159.147 851.207 160.587 855.713 160.587H868.666C869.917 160.587 870.981 161.025 871.857 161.901C872.733 162.778 873.171 163.842 873.171 165.094V176.739C873.171 177.991 872.733 179.055 871.857 179.932C870.981 180.808 869.917 181.246 868.666 181.246H853.46Z" fill="#34B56F"/>
<path d="M736.997 183.125C730.49 183.125 724.608 181.872 719.351 179.368C714.095 176.739 709.903 173.296 706.774 169.038C703.771 164.656 702.269 159.773 702.269 154.389C702.269 145.624 705.773 138.675 712.781 133.541C719.915 128.282 729.301 124.776 740.939 123.023L766.657 119.267V115.323C766.657 110.064 765.343 105.995 762.715 103.115C760.087 100.235 755.581 98.7951 749.199 98.7951C744.694 98.7951 741.002 99.7342 738.123 101.612C735.37 103.365 733.305 105.744 731.929 108.749C730.928 110.377 729.488 111.191 727.611 111.191H712.781C711.405 111.191 710.341 110.815 709.59 110.064C708.964 109.313 708.651 108.311 708.651 107.059C708.776 105.056 709.59 102.614 711.092 99.7342C712.593 96.8544 714.971 94.0997 718.225 91.4703C721.479 88.7157 725.671 86.3993 730.802 84.5211C735.933 82.643 742.128 81.7039 749.387 81.7039C757.271 81.7039 763.904 82.7056 769.285 84.7089C774.792 86.5871 779.172 89.1539 782.426 92.4094C785.679 95.6649 788.057 99.4838 789.559 103.866C791.061 108.249 791.812 112.881 791.812 117.765V176.739C791.812 177.991 791.374 179.055 790.498 179.932C789.621 180.808 788.558 181.246 787.306 181.246H772.101C770.724 181.246 769.598 180.808 768.722 179.932C767.971 179.055 767.596 177.991 767.596 176.739V169.414C765.969 171.793 763.779 174.047 761.025 176.175C758.272 178.179 754.893 179.869 750.888 181.246C747.009 182.498 742.379 183.125 736.997 183.125ZM743.38 165.282C747.76 165.282 751.702 164.343 755.206 162.465C758.835 160.587 761.651 157.707 763.653 153.825C765.781 149.819 766.845 144.81 766.845 138.8V134.856L748.073 137.861C740.689 138.988 735.182 140.803 731.553 143.308C727.924 145.812 726.109 148.879 726.109 152.511C726.109 155.265 726.923 157.644 728.55 159.648C730.302 161.526 732.492 162.966 735.12 163.967C737.748 164.844 740.501 165.282 743.38 165.282Z" fill="#34B56F"/>
<path d="M584.283 181.246C583.032 181.246 581.968 180.871 581.092 180.12C580.216 179.243 579.778 178.116 579.778 176.739V54.4706C579.778 53.0932 580.216 51.9663 581.092 51.0899C581.968 50.2134 583.032 49.7752 584.283 49.7752H601.366C602.743 49.7752 603.806 50.2134 604.557 51.0899C605.433 51.9663 605.871 53.0932 605.871 54.4706V102.927H661.249V54.4706C661.249 53.0932 661.687 51.9663 662.563 51.0899C663.439 50.2134 664.503 49.7752 665.754 49.7752H682.649C684.026 49.7752 685.152 50.2134 686.028 51.0899C686.904 51.9663 687.342 53.0932 687.342 54.4706V176.739C687.342 177.991 686.904 179.055 686.028 179.932C685.152 180.808 684.026 181.246 682.649 181.246H665.754C664.503 181.246 663.439 180.808 662.563 179.932C661.687 179.055 661.249 177.991 661.249 176.739V126.404H605.871V176.739C605.871 177.991 605.433 179.055 604.557 179.932C603.806 180.808 602.743 181.246 601.366 181.246H584.283Z" fill="#34B56F"/>
<path d="M538.17 181.246C536.919 181.246 535.855 180.808 534.979 179.932C534.103 179.055 533.665 177.991 533.665 176.739V52.4046C533.665 51.1525 534.103 50.0882 534.979 49.2117C535.855 48.3352 536.919 47.897 538.17 47.897H553.751C555.002 47.897 556.066 48.3352 556.942 49.2117C557.818 50.0882 558.256 51.1525 558.256 52.4046V176.739C558.256 177.991 557.818 179.055 556.942 179.932C556.066 180.808 555.002 181.246 553.751 181.246H538.17Z" fill="#151515"/>
<path d="M494.122 181.246C492.87 181.246 491.807 180.808 490.931 179.932C490.055 179.055 489.617 177.991 489.617 176.739V52.4046C489.617 51.1525 490.055 50.0882 490.931 49.2117C491.807 48.3352 492.87 47.897 494.122 47.897H509.703C510.954 47.897 512.018 48.3352 512.894 49.2117C513.77 50.0882 514.208 51.1525 514.208 52.4046V176.739C514.208 177.991 513.77 179.055 512.894 179.932C512.018 180.808 510.954 181.246 509.703 181.246H494.122Z" fill="#151515"/>
<path d="M450.069 181.246C448.818 181.246 447.754 180.808 446.878 179.931C446.002 179.055 445.564 177.991 445.564 176.739V88.0894C445.564 86.8373 446.002 85.773 446.878 84.8966C447.754 84.0201 448.818 83.5819 450.069 83.5819H465.65C467.026 83.5819 468.09 84.0201 468.841 84.8966C469.717 85.773 470.155 86.8373 470.155 88.0894V176.739C470.155 177.991 469.717 179.055 468.841 179.931C468.09 180.808 467.026 181.246 465.65 181.246H450.069ZM449.318 67.4297C447.942 67.4297 446.815 67.054 445.939 66.3028C445.188 65.4263 444.813 64.2994 444.813 62.9221V49.3993C444.813 48.1472 445.188 47.0829 445.939 46.2065C446.815 45.33 447.942 44.8918 449.318 44.8918H466.401C467.777 44.8918 468.904 45.33 469.78 46.2065C470.656 47.0829 471.094 48.1472 471.094 49.3993V62.9221C471.094 64.2994 470.656 65.4263 469.78 66.3028C468.904 67.054 467.777 67.4297 466.401 67.4297H449.318Z" fill="#151515"/>
<path d="M352.679 181.246C351.427 181.246 350.363 180.808 349.487 179.932C348.611 179.055 348.173 177.991 348.173 176.739V52.4046C348.173 51.1525 348.611 50.0882 349.487 49.2117C350.363 48.3352 351.427 47.897 352.679 47.897H367.884C369.261 47.897 370.324 48.3352 371.075 49.2117C371.951 50.0882 372.389 51.1525 372.389 52.4046V116.638L403.926 86.7749C405.053 85.7732 406.054 85.022 406.93 84.5211C407.806 83.8951 409.12 83.582 410.872 83.582H428.33C429.582 83.582 430.583 83.9577 431.334 84.7089C432.085 85.4602 432.46 86.4619 432.46 87.714C432.46 88.2148 432.335 88.7783 432.085 89.4043C431.834 90.0304 431.334 90.5938 430.583 91.0947L391.912 127.343L435.276 173.922C436.527 175.174 437.153 176.238 437.153 177.114C437.153 178.367 436.715 179.368 435.839 180.12C435.088 180.871 434.149 181.246 433.023 181.246H415.19C413.312 181.246 411.936 180.996 411.06 180.495C410.309 179.869 409.37 179.055 408.244 178.054L372.389 140.302V176.739C372.389 177.991 371.951 179.055 371.075 179.932C370.324 180.808 369.261 181.246 367.884 181.246H352.679Z" fill="#151515"/>
<path d="M281.044 183.125C269.405 183.125 259.644 181.434 251.76 178.054C244 174.548 238.056 170.04 233.926 164.531C229.921 158.896 227.794 153.011 227.544 146.876C227.544 145.749 227.919 144.81 228.67 144.059C229.421 143.308 230.359 142.932 231.486 142.932H248.193C249.82 142.932 251.009 143.308 251.76 144.059C252.636 144.685 253.387 145.499 254.012 146.5C254.763 148.879 256.202 151.258 258.33 153.637C260.457 155.891 263.336 157.769 266.965 159.272C270.719 160.774 275.412 161.526 281.044 161.526C290.055 161.526 296.75 160.023 301.13 157.018C305.635 154.013 307.888 149.944 307.888 144.81C307.888 141.179 306.699 138.299 304.321 136.171C301.944 133.917 298.252 131.913 293.246 130.16C288.365 128.282 281.858 126.342 273.723 124.338C264.337 122.084 256.453 119.392 250.07 116.262C243.813 113.007 239.057 108.937 235.803 104.054C232.675 99.1708 231.11 92.9728 231.11 85.4602C231.11 78.198 233.05 71.7496 236.93 66.1152C240.934 60.4807 246.566 56.0357 253.825 52.7802C261.208 49.5247 269.969 47.897 280.105 47.897C288.24 47.897 295.436 49.0239 301.693 51.2777C307.951 53.4063 313.144 56.2861 317.274 59.9172C321.404 63.4231 324.533 67.242 326.66 71.374C328.913 75.3807 330.102 79.3249 330.227 83.2064C330.227 84.2081 329.851 85.1472 329.101 86.0236C328.475 86.7749 327.536 87.1505 326.285 87.1505H308.827C307.826 87.1505 306.824 86.9001 305.823 86.3993C304.822 85.8984 304.009 84.9594 303.383 83.582C302.632 79.7005 300.192 76.3824 296.062 73.6278C291.932 70.8732 286.613 69.4958 280.105 69.4958C273.348 69.4958 267.904 70.7479 263.774 73.2522C259.644 75.7564 257.579 79.6379 257.579 84.8968C257.579 88.4027 258.58 91.3451 260.583 93.7241C262.71 95.9779 266.026 97.9813 270.532 99.7342C275.162 101.487 281.232 103.365 288.741 105.369C299.378 107.748 308.076 110.502 314.834 113.633C321.592 116.763 326.535 120.77 329.664 125.653C332.792 130.411 334.357 136.484 334.357 143.871C334.357 152.135 332.104 159.209 327.599 165.094C323.219 170.854 317.024 175.299 309.014 178.429C301.005 181.559 291.682 183.125 281.044 183.125Z" fill="#151515"/>
<path fill-rule="evenodd" clip-rule="evenodd" d="M132.061 65.6056C133.719 68.6604 136.449 70.9145 139.6 71.9444L125.044 86.5075L120.256 81.7176C115.125 76.583 106.805 76.5839 101.673 81.7176L68.2583 115.149L58.3086 105.195C53.177 100.06 44.8569 100.061 39.7253 105.195L3.7834 141.155C2.15574 142.784 1.084 144.758 0.568184 146.842C0.116297 148.268 -0.0271514 149.814 0.209333 151.409C6.65719 194.874 43.6777 228.2 88.3821 228.2C137.628 228.2 177.549 187.759 177.549 137.873C177.549 132.86 177.147 127.463 176.372 121.809C175.48 115.308 169.217 111.125 162.758 112.265C155.954 113.466 151.598 120.081 152.431 126.943C152.904 130.84 153.146 134.508 153.146 137.873C153.146 174.562 123.865 203.784 88.3821 203.784C58.2593 203.784 32.6063 182.724 25.5436 153.913L49.0169 130.428L58.9667 140.383C64.0983 145.517 72.4183 145.516 77.5499 140.383L110.965 106.951L115.752 111.741C120.884 116.874 129.204 116.874 134.335 111.741L183.577 62.4738L186.169 65.0673C189.285 68.1853 194.612 66.6749 195.63 62.3849L202.624 32.9258C203.593 28.8439 199.923 25.172 195.843 26.1413L166.398 33.1386C162.11 34.1574 160.601 39.4865 163.718 42.6046L166.321 45.2091L154.868 56.6679C154.705 56.2506 154.515 55.837 154.297 55.4271C137.99 24.7456 114.497 0.00390625 88.3821 0.00390625C55.5819 0.00390625 23.3438 43.6739 8.97872 88.9946C6.11066 98.0433 14.1149 106.313 23.4588 104.665C28.2338 103.823 32.1778 100.481 33.7035 95.8763L34.3373 93.9614C37.8761 83.2611 42.4238 69.5105 46.5158 62.3509C53.6552 49.8604 61.5795 39.8194 69.4341 33.1725C77.288 26.5256 83.6302 24.42 88.3821 24.42C93.1343 24.42 99.4763 26.5256 107.33 33.1725C115.185 39.8194 123.109 49.8604 130.249 62.3509C130.864 63.4276 131.468 64.5125 132.061 65.6056Z" fill="#34B56F"/>
</svg>
